<svg width="952" height="1117" viewBox="0 0 952 1117" fill="none" xmlns="http://www.w3.org/2000/svg">
<g filter="url(#filter0_d_539_233)">
<path d="M939.599 344.505C949.659 250.96 767.076 0 767.076 0H-5V1117H816.872C816.872 1117 958.712 929.408 919.983 851.958C881.253 774.507 798.764 735.782 816.872 623.126C834.979 510.47 929.539 438.049 939.599 344.505Z" fill="#D8FFFF"/>
<path d="M939.599 344.505C949.659 250.96 767.076 0 767.076 0H-5V1117H816.872C816.872 1117 958.712 929.408 919.983 851.958C881.253 774.507 798.764 735.782 816.872 623.126C834.979 510.47 929.539 438.049 939.599 344.505Z" stroke="black"/>
</g>
<defs>
<filter id="filter0_d_539_233" x="-17" y="-12" width="969" height="1141" filterUnits="userSpaceOnUse" color-interpolation-filters="sRGB">
<feFlood flood-opacity="0" result="BackgroundImageFix"/>
<feColorMatrix in="SourceAlpha" type="matrix" values="0 0 0 0 0 0 0 0 0 0 0 0 0 0 0 0 0 0 127 0" result="hardAlpha"/>
<feOffset/>
<feGaussianBlur stdDeviation="6"/>
<feComposite in2="hardAlpha" operator="out"/>
<feColorMatrix type="matrix" values="0 0 0 0 0 0 0 0 0 0 0 0 0 0 0 0 0 0 0.25 0"/>
<feBlend mode="normal" in2="BackgroundImageFix" result="effect1_dropShadow_539_233"/>
<feBlend mode="normal" in="SourceGraphic" in2="effect1_dropShadow_539_233" result="shape"/>
</filter>
</defs>
</svg>
